<svg id="SvgjsSvg1006" width="972.8626980251736" height="705.500013563368" xmlns="http://www.w3.org/2000/svg" version="1.1" xmlns:xlink="http://www.w3.org/1999/xlink" xmlns:svgjs="http://svgjs.com/svgjs"><defs id="SvgjsDefs1007"><pattern patternUnits="userSpaceOnUse" id="pattern_mark_0" width="300" height="300"><text x="150" y="100" fill="rgba(229,229,229,0.8)" font-size="18" transform="rotate(-45, 150, 150)" style="dominant-baseline: middle; text-anchor: middle;"></text></pattern><pattern patternUnits="userSpaceOnUse" id="pattern_mark_1" width="300" height="300"><text x="150" y="200" fill="rgba(229,229,229,0.8)" font-size="18" transform="rotate(-45, 150, 150)" style="dominant-baseline: middle; text-anchor: middle;"></text></pattern><marker id="SvgjsMarker1051" markerWidth="14" markerHeight="10" refX="10" refY="5" viewBox="0 0 14 10" orient="auto" markerUnits="userSpaceOnUse" stroke-dasharray="0,0"><path id="SvgjsPath1052" d="M0,0 L14,5 L0,10 L0,0" fill="#323232" stroke="#323232" stroke-width="1"></path></marker><marker id="SvgjsMarker1055" markerWidth="14" markerHeight="10" refX="10" refY="5" viewBox="0 0 14 10" orient="auto" markerUnits="userSpaceOnUse" stroke-dasharray="0,0"><path id="SvgjsPath1056" d="M0,0 L14,5 L0,10 L0,0" fill="#323232" stroke="#323232" stroke-width="1"></path></marker><marker id="SvgjsMarker1059" markerWidth="14" markerHeight="10" refX="10" refY="5" viewBox="0 0 14 10" orient="auto" markerUnits="userSpaceOnUse" stroke-dasharray="0,0"><path id="SvgjsPath1060" d="M0,0 L14,5 L0,10 L0,0" fill="#323232" stroke="#323232" stroke-width="1"></path></marker><marker id="SvgjsMarker1063" markerWidth="14" markerHeight="10" refX="10" refY="5" viewBox="0 0 14 10" orient="auto" markerUnits="userSpaceOnUse" stroke-dasharray="0,0"><path id="SvgjsPath1064" d="M0,0 L14,5 L0,10 L0,0" fill="#323232" stroke="#323232" stroke-width="1"></path></marker><marker id="SvgjsMarker1073" markerWidth="14" markerHeight="10" refX="10" refY="5" viewBox="0 0 14 10" orient="auto" markerUnits="userSpaceOnUse" stroke-dasharray="0,0"><path id="SvgjsPath1074" d="M0,0 L14,5 L0,10 L0,0" fill="#323232" stroke="#323232" stroke-width="1"></path></marker></defs><rect id="svgbackgroundid" width="972.8626980251736" height="705.500013563368" fill="transparent"></rect><rect id="SvgjsRect1009" width="972.8626980251736" height="705.500013563368" fill="url(#pattern_mark_0)"></rect><rect id="SvgjsRect1010" width="972.8626980251736" height="705.500013563368" fill="url(#pattern_mark_1)"></rect><g id="SvgjsG1011" transform="translate(444.0018378363715,363.9430987040196)"><path id="SvgjsPath1012" d="M 0 43.5C 0 -14.5 87 -14.5 87 43.5C 87 101.5 0 101.5 0 43.5Z" stroke="rgba(33,41,48,1)" stroke-width="4" fill-opacity="1" fill="#ffffff"></path><g id="SvgjsG1013"><text id="SvgjsText1014" font-family="微软雅黑" text-anchor="middle" font-size="16px" width="67px" fill="#323232" font-weight="400" align="middle" lineHeight="125%" anchor="middle" family="微软雅黑" size="16px" weight="400" font-style="" opacity="1" y="29.5" transform="rotate(0)"><tspan id="SvgjsTspan1015" dy="20" x="43.5"><tspan id="SvgjsTspan1016" style="">Prune</tspan></tspan></text></g></g><g id="SvgjsG1017" transform="translate(660.8113732716392,157.7915133521672)"><path id="SvgjsPath1018" d="M 0 38.31348909650522C 0 -12.771163032168408 116.77775743272582 -12.771163032168408 116.77775743272582 38.31348909650522C 116.77775743272582 89.39814122517885 0 89.39814122517885 0 38.31348909650522Z" stroke="rgba(51,153,255,1)" stroke-width="4" fill-opacity="1" fill="#ffffff"></path><g id="SvgjsG1019"><text id="SvgjsText1020" font-family="微软雅黑" text-anchor="middle" font-size="15px" width="97px" fill="#323232" font-weight="400" align="middle" lineHeight="125%" anchor="middle" family="微软雅黑" size="15px" weight="400" font-style="" opacity="1" y="25.938489096505222" transform="rotate(0)"><tspan id="SvgjsTspan1021" dy="18.75" x="58.5"><tspan id="SvgjsTspan1022" style="">Regularizer</tspan></tspan></text></g></g><g id="SvgjsG1023" transform="translate(425.97802249969,490.62167013259125)"><path id="SvgjsPath1024" d="M 0 39.75C 0 -13.25 123.04763067336313 -13.25 123.04763067336313 39.75C 123.04763067336313 92.75 0 92.75 0 39.75Z" stroke="rgba(204,204,0,1)" stroke-width="4" fill-opacity="1" fill="#ffffff"></path><g id="SvgjsG1025"><text id="SvgjsText1026" font-family="微软雅黑" text-anchor="middle" font-size="15px" width="104px" fill="#323232" font-weight="400" align="middle" lineHeight="125%" anchor="middle" family="微软雅黑" size="15px" weight="400" font-style="" opacity="1" y="27.375" transform="rotate(0)"><tspan id="SvgjsTspan1027" dy="18.75" x="62"><tspan id="SvgjsTspan1028" style="">Importance</tspan></tspan></text></g></g><g id="SvgjsG1029"><path id="SvgjsPath1030" d="M533.0007862109007 407.3782496796084C 633.2612395726699 407.4430987040196 720.9849246291378 336.66231867928695 719.1533761969872 236.41794213476888" stroke="#323232" stroke-width="2" fill="none"></path></g><g id="SvgjsG1031" transform="translate(435.84311930338544,161.10500244867242)"><path id="SvgjsPath1032" d="M 0 35C 0 -11.666666666666666 101.88884819878471 -11.666666666666666 101.88884819878471 35C 101.88884819878471 81.66666666666667 0 81.66666666666667 0 35Z" stroke="rgba(255,153,51,1)" stroke-width="3" fill-opacity="1" fill="#ffffff"></path><g id="SvgjsG1033"><text id="SvgjsText1034" font-family="微软雅黑" text-anchor="middle" font-size="15px" width="82px" fill="#323232" font-weight="400" align="middle" lineHeight="125%" anchor="middle" family="微软雅黑" size="15px" weight="400" font-style="" opacity="1" y="22.625" transform="rotate(0)"><tspan id="SvgjsTspan1035" dy="18.75" x="51"><tspan id="SvgjsTspan1036" style="">DepGraph</tspan></tspan></text></g></g><g id="SvgjsG1037" transform="translate(437.5018378363715,48.73614629109696)"><path id="SvgjsPath1038" d="M 0 0L 100 0L 100 40L 0 40Z" stroke="none" fill="none"></path><g id="SvgjsG1039"><text id="SvgjsText1040" font-family="微软雅黑" text-anchor="middle" font-size="20px" width="100px" fill="#323232" font-weight="400" align="middle" lineHeight="125%" anchor="middle" family="微软雅黑" size="20px" weight="400" font-style="" opacity="1" y="2" transform="rotate(0)"><tspan id="SvgjsTspan1041" dy="25" x="50"><tspan id="SvgjsTspan1042" style="font-weight: bold;">Model</tspan></tspan></text></g></g><g id="SvgjsG1043" transform="translate(437.5018378363715,290.5452846345448)"><path id="SvgjsPath1044" d="M 0 0L 100 0L 100 40L 0 40Z" stroke="none" fill="none"></path><g id="SvgjsG1045"><text id="SvgjsText1046" font-family="微软雅黑" text-anchor="middle" font-size="20px" width="100px" fill="#323232" font-weight="400" align="middle" lineHeight="125%" anchor="middle" family="微软雅黑" size="20px" weight="400" font-style="" opacity="1" y="2" transform="rotate(0)"><tspan id="SvgjsTspan1047" dy="25" x="50"><tspan id="SvgjsTspan1048" style="font-weight: bold;">Groups</tspan></tspan></text></g></g><g id="SvgjsG1049"><path id="SvgjsPath1050" d="M487.5018378363715 89.48614629109696L487.5018378363715 124.92057436988469L487.5018378363715 124.92057436988469L487.5018378363715 157.0050024486724" stroke="#323232" stroke-width="2" fill="none" marker-end="url(#SvgjsMarker1051)"></path></g><g id="SvgjsG1053"><path id="SvgjsPath1054" d="M486.78754340277777 232.60500244867242L486.78754340277777 260.82514354160855L486.78754340277777 260.82514354160855L486.78754340277777 287.1952846345448" stroke="#323232" stroke-width="2" fill="none" marker-end="url(#SvgjsMarker1055)"></path></g><g id="SvgjsG1057"><path id="SvgjsPath1058" d="M487.5018378363715 331.2952846345448L487.5018378363715 347.24419166928226L487.5018378363715 347.24419166928226L487.5018378363715 359.34309870401955" stroke="#323232" stroke-width="2" fill="none" marker-end="url(#SvgjsMarker1059)"></path></g><g id="SvgjsG1061"><path id="SvgjsPath1062" d="M538.2518378363716 68.73614629109696L719.2002519880023 68.73614629109696L719.2002519880023 153.19151335216716" stroke="#323232" stroke-width="2" fill="none" marker-end="url(#SvgjsMarker1063)"></path></g><g id="SvgjsG1065" transform="translate(575.1161392454117,25.008995540558345)"><path id="SvgjsPath1066" d="M 0 0L 100 0L 100 40L 0 40Z" stroke="none" fill="none"></path><g id="SvgjsG1067"><text id="SvgjsText1068" font-family="微软雅黑" text-anchor="middle" font-size="20px" width="100px" fill="#323232" font-weight="700" align="middle" lineHeight="125%" anchor="middle" family="微软雅黑" size="20px" weight="700" font-style="" opacity="1" y="2" transform="rotate(0)"><tspan id="SvgjsTspan1069" dy="25" x="50"><tspan id="SvgjsTspan1070" style="">(optional)</tspan></tspan></text></g></g><g id="SvgjsG1071"><path id="SvgjsPath1072" d="M658.8113732716392 196.10500244867242L599.2716703869046 196.10500244867242L599.2716703869046 196.10500244867242L541.8319675021701 196.10500244867242" stroke="#323232" stroke-width="2" fill="none" marker-end="url(#SvgjsMarker1073)"></path></g><g id="SvgjsG1075" transform="translate(856.1272289942181,33.73614629109696)"><path id="SvgjsPath1076" d="M 0 35C 0 -11.666666666666666 76.39999389648438 -11.666666666666666 76.39999389648438 35C 76.39999389648438 81.66666666666667 0 81.66666666666667 0 35Z" stroke="rgba(149,218,105,1)" stroke-width="4" fill-opacity="1" fill="#ffffff"></path><g id="SvgjsG1077"><text id="SvgjsText1078" font-family="微软雅黑" text-anchor="middle" font-size="15px" width="57px" fill="#323232" font-weight="400" align="middle" lineHeight="125%" anchor="middle" family="微软雅黑" size="15px" weight="400" font-style="" opacity="1" y="22.625" transform="rotate(0)"><tspan id="SvgjsTspan1079" dy="18.75" x="38.5"><tspan id="SvgjsTspan1080" style="">Weight</tspan></tspan></text></g></g><g id="SvgjsG1081"><path id="SvgjsPath1082" d="M779.8113442072793 196.73614629109696C 810.3376981220549 145.53614629109697 796.6628862667221 72.89429820234702 854.1575319076906 69.08297966222122" stroke="#323232" stroke-width="2" fill="none"></path></g><g id="SvgjsG1083" transform="translate(847.8272259424602,161.10500244867242)"><path id="SvgjsPath1084" d="M 0 35C 0 -11.666666666666666 93 -11.666666666666666 93 35C 93 81.66666666666667 0 81.66666666666667 0 35Z" stroke="rgba(149,218,105,1)" stroke-width="4" fill-opacity="1" fill="#ffffff"></path><g id="SvgjsG1085"><text id="SvgjsText1086" font-family="微软雅黑" text-anchor="middle" font-size="15px" width="73px" fill="#323232" font-weight="400" align="middle" lineHeight="125%" anchor="middle" family="微软雅黑" size="15px" weight="400" font-style="" opacity="1" y="22.625" transform="rotate(0)"><tspan id="SvgjsTspan1087" dy="18.75" x="46.5"><tspan id="SvgjsTspan1088" style="">Gradient</tspan></tspan></text></g></g><g id="SvgjsG1089"><path id="SvgjsPath1090" d="M779.5826006535342 196.2664879333473C 805.5774579364665 198.55366379253522 819.8858965011614 199.04175451190682 845.8355323226067 196.28709178014194" stroke="#323232" stroke-width="2" fill="none"></path></g><g id="SvgjsG1091" transform="translate(847.8272259424602,275.5452846345448)"><path id="SvgjsPath1092" d="M 0 35C 0 -11.666666666666666 93 -11.666666666666666 93 35C 93 81.66666666666667 0 81.66666666666667 0 35Z" stroke="rgba(149,218,105,1)" stroke-width="4" fill-opacity="1" fill="#ffffff"></path><g id="SvgjsG1093"><text id="SvgjsText1094" font-family="微软雅黑" text-anchor="middle" font-size="15px" width="73px" fill="#323232" font-weight="400" align="middle" lineHeight="125%" anchor="middle" family="微软雅黑" size="15px" weight="400" font-style="" opacity="1" y="22.625" transform="rotate(0)"><tspan id="SvgjsTspan1095" dy="18.75" x="46.5"><tspan id="SvgjsTspan1096" style="">Extra</tspan></tspan></text></g></g><g id="SvgjsG1097"><path id="SvgjsPath1098" d="M779.0881302418413 197.42901165809914C 825.6208665635852 228.0375323825413 794.411169663588 316.159538380644 845.8298282542848 310.44329210897956" stroke="#323232" stroke-width="2" fill="none"></path></g><g id="SvgjsG1099" transform="translate(608.9863603379993,414.340325249565)"><path id="SvgjsPath1100" d="M 0 35C 0 -11.666666666666666 76.39999389648438 -11.666666666666666 76.39999389648438 35C 76.39999389648438 81.66666666666667 0 81.66666666666667 0 35Z" stroke="rgba(149,218,105,1)" stroke-width="4" fill-opacity="1" fill="#ffffff"></path><g id="SvgjsG1101"><text id="SvgjsText1102" font-family="微软雅黑" text-anchor="middle" font-size="15px" width="57px" fill="#323232" font-weight="400" align="middle" lineHeight="125%" anchor="middle" family="微软雅黑" size="15px" weight="400" font-style="" opacity="1" y="22.625" transform="rotate(0)"><tspan id="SvgjsTspan1103" dy="18.75" x="38.5"><tspan id="SvgjsTspan1104" style="">Weight</tspan></tspan></text></g></g><g id="SvgjsG1105"><path id="SvgjsPath1106" d="M550.9958022207786 530.027413353797C 589.1936569012178 533.8859150952727 568.7631423599516 452.1530066488788 607.0930973957113 449.98496114009504" stroke="#323232" stroke-width="2" fill="none"></path></g><g id="SvgjsG1107" transform="translate(612.4938926091268,575.1216701325912)"><path id="SvgjsPath1108" d="M 0 35C 0 -11.666666666666666 93 -11.666666666666666 93 35C 93 81.66666666666667 0 81.66666666666667 0 35Z" stroke="rgba(149,218,105,1)" stroke-width="4" fill-opacity="1" fill="#ffffff"></path><g id="SvgjsG1109"><text id="SvgjsText1110" font-family="微软雅黑" text-anchor="middle" font-size="15px" width="73px" fill="#323232" font-weight="400" align="middle" lineHeight="125%" anchor="middle" family="微软雅黑" size="15px" weight="400" font-style="" opacity="1" y="22.625" transform="rotate(0)"><tspan id="SvgjsTspan1111" dy="18.75" x="46.5"><tspan id="SvgjsTspan1112" style="">Gradient</tspan></tspan></text></g></g><g id="SvgjsG1113"><path id="SvgjsPath1114" d="M550.9157601579104 531.0255015984852C 589.6396788488714 533.9249369593762 571.9480657029785 614.3832082627764 610.5146182347555 609.8344890904639" stroke="#323232" stroke-width="2" fill="none"></path></g><g id="SvgjsG1115"><path id="SvgjsPath1116" d="M687.3736009441443 449.1148246621078C 726.6564471196527 452.95099051967907 720.8749304050993 384.69047832340345 760.0923323120558 380.26150207732746" stroke="#323232" stroke-width="2" fill="none"></path></g><g id="SvgjsG1117" transform="translate(761.993872264075,351.8403155008946)"><path id="SvgjsPath1118" d="M 0 27.801391601562486C 0 -9.267130533854163 85.83335367838527 -9.267130533854163 85.83335367838527 27.801391601562486C 85.83335367838527 64.86991373697913 0 64.86991373697913 0 27.801391601562486Z" stroke="rgba(70,105,234,1)" stroke-width="4" fill-opacity="1" fill="#ffffff"></path><g id="SvgjsG1119"><text id="SvgjsText1120" font-family="微软雅黑" text-anchor="middle" font-size="15px" width="66px" fill="#323232" font-weight="400" align="middle" lineHeight="125%" anchor="middle" family="微软雅黑" size="15px" weight="400" font-style="" opacity="1" y="15.426391601562486" transform="rotate(0)"><tspan id="SvgjsTspan1121" dy="18.75" x="43"><tspan id="SvgjsTspan1122" style="">Norm</tspan></tspan></text></g></g><g id="SvgjsG1123" transform="translate(761.993872264075,439.76888692946625)"><path id="SvgjsPath1124" d="M 0 27.801391601562486C 0 -9.267130533854163 108.25 -9.267130533854163 108.25 27.801391601562486C 108.25 64.86991373697913 0 64.86991373697913 0 27.801391601562486Z" stroke="rgba(252,36,54,1)" stroke-width="4" fill-opacity="1" fill="#ffffff"></path><g id="SvgjsG1125"><text id="SvgjsText1126" font-family="微软雅黑" text-anchor="middle" font-size="15px" width="89px" fill="#323232" font-weight="400" align="middle" lineHeight="125%" anchor="middle" family="微软雅黑" size="15px" weight="400" font-style="" opacity="1" y="15.426391601562486" transform="rotate(0)"><tspan id="SvgjsTspan1127" dy="18.75" x="54.5"><tspan id="SvgjsTspan1128" style="">Correlation</tspan></tspan></text></g></g><g id="SvgjsG1129"><path id="SvgjsPath1130" d="M687.3605553596622 449.66052818107073C 716.8083056776918 451.5375621390323 730.882992645749 472.4977577873815 759.9959984020265 467.6624741455878" stroke="#323232" stroke-width="2" fill="none"></path></g><g id="SvgjsG1131" transform="translate(765.8689027816527,529.9008936503558)"><path id="SvgjsPath1132" d="M 0 27.801391601562486C 0 -9.267130533854163 167.45832316080737 -9.267130533854163 167.45832316080737 27.801391601562486C 167.45832316080737 64.86991373697913 0 64.86991373697913 0 27.801391601562486Z" stroke="rgba(70,105,234,1)" stroke-width="4" fill-opacity="1" fill="#ffffff"></path><g id="SvgjsG1133"><text id="SvgjsText1134" font-family="微软雅黑" text-anchor="middle" font-size="15px" width="148px" fill="#323232" font-weight="400" align="middle" lineHeight="125%" anchor="middle" family="微软雅黑" size="15px" weight="400" font-style="" opacity="1" y="15.426391601562486" transform="rotate(0)"><tspan id="SvgjsTspan1135" dy="18.75" x="84"><tspan id="SvgjsTspan1136" style="">First-order-Taylor</tspan></tspan></text></g></g><g id="SvgjsG1137" transform="translate(765.8689027816527,610.5036768534808)"><path id="SvgjsPath1138" d="M 0 27.801391601562486C 0 -9.267130533854163 182.45832316080737 -9.267130533854163 182.45832316080737 27.801391601562486C 182.45832316080737 64.86991373697913 0 64.86991373697913 0 27.801391601562486Z" stroke="rgba(70,105,234,1)" stroke-width="4" fill-opacity="1" fill="#ffffff"></path><g id="SvgjsG1139"><text id="SvgjsText1140" font-family="微软雅黑" text-anchor="middle" font-size="15px" width="163px" fill="#323232" font-weight="400" align="middle" lineHeight="125%" anchor="middle" family="微软雅黑" size="15px" weight="400" font-style="" opacity="1" y="15.426391601562486" transform="rotate(0)"><tspan id="SvgjsTspan1141" dy="18.75" x="91.5"><tspan id="SvgjsTspan1142" style="">Second-order-Taylor</tspan></tspan></text></g></g><g id="SvgjsG1143" transform="translate(243.07917083255865,495.37167013259125)"><path id="SvgjsPath1144" d="M 0 35C 0 -11.666666666666666 93 -11.666666666666666 93 35C 93 81.66666666666667 0 81.66666666666667 0 35Z" stroke="rgba(149,218,105,1)" stroke-width="4" fill-opacity="1" fill="#ffffff"></path><g id="SvgjsG1145"><text id="SvgjsText1146" font-family="微软雅黑" text-anchor="middle" font-size="15px" width="73px" fill="#323232" font-weight="400" align="middle" lineHeight="125%" anchor="middle" family="微软雅黑" size="15px" weight="400" font-style="" opacity="1" y="22.625" transform="rotate(0)"><tspan id="SvgjsTspan1147" dy="18.75" x="46.5"><tspan id="SvgjsTspan1148" style="">Activation</tspan></tspan></text></g></g><g id="SvgjsG1149" transform="translate(239.74587818932952,420.2092237623897)"><path id="SvgjsPath1150" d="M 0 27.04444334242055C 0 -9.014814447473517 96.33329264322907 -9.014814447473517 96.33329264322907 27.04444334242055C 96.33329264322907 63.10370113231462 0 63.10370113231462 0 27.04444334242055Z" stroke="rgba(149,218,105,1)" stroke-width="3" fill-opacity="1" fill="#ffffff"></path><g id="SvgjsG1151"><text id="SvgjsText1152" font-family="微软雅黑" text-anchor="middle" font-size="15px" width="77px" fill="#323232" font-weight="400" align="middle" lineHeight="125%" anchor="middle" family="微软雅黑" size="15px" weight="400" font-style="" opacity="1" y="14.66944334242055" transform="rotate(0)"><tspan id="SvgjsTspan1153" dy="18.75" x="48.5"><tspan id="SvgjsTspan1154" style="">Random</tspan></tspan></text></g></g><g id="SvgjsG1155" transform="translate(243.07917083255865,589.0368487040199)"><path id="SvgjsPath1156" d="M 0 35C 0 -11.666666666666666 93 -11.666666666666666 93 35C 93 81.66666666666667 0 81.66666666666667 0 35Z" stroke="rgba(149,218,105,1)" stroke-width="4" fill-opacity="1" fill="#ffffff"></path><g id="SvgjsG1157"><text id="SvgjsText1158" font-family="微软雅黑" text-anchor="middle" font-size="15px" width="73px" fill="#323232" font-weight="400" align="middle" lineHeight="125%" anchor="middle" family="微软雅黑" size="15px" weight="400" font-style="" opacity="1" y="22.625" transform="rotate(0)"><tspan id="SvgjsTspan1159" dy="18.75" x="46.5"><tspan id="SvgjsTspan1160" style="">BNScale</tspan></tspan></text></g></g><g id="SvgjsG1161"><path id="SvgjsPath1162" d="M424.0531361460242 530.9146365454304C 374.33182852644705 535.7999038545317 387.8122345814573 628.5629053115126 338.071896225186 623.8664212720195" stroke="#323232" stroke-width="2" fill="none"></path></g><g id="SvgjsG1163" transform="translate(432.7309994167752,610.5036768534808)"><path id="SvgjsPath1164" d="M 0 35C 0 -11.666666666666666 109.54167683919263 -11.666666666666666 109.54167683919263 35C 109.54167683919263 81.66666666666667 0 81.66666666666667 0 35Z" stroke="rgba(149,218,105,1)" stroke-width="4" fill-opacity="1" fill="#ffffff"></path><g id="SvgjsG1165"><text id="SvgjsText1166" font-family="微软雅黑" text-anchor="middle" font-size="15px" width="90px" fill="#323232" font-weight="400" align="middle" lineHeight="125%" anchor="middle" family="微软雅黑" size="15px" weight="400" font-style="" opacity="1" y="13.125" transform="rotate(0)"><tspan id="SvgjsTspan1167" dy="18.75" x="55"><tspan id="SvgjsTspan1168" style="">Variational </tspan></tspan><tspan id="SvgjsTspan1169" dy="18.75" x="55"><tspan id="SvgjsTspan1170" style="">Bayesian</tspan></tspan></text></g></g><g id="SvgjsG1171"><path id="SvgjsPath1172" d="M487.53789367229484 488.6219951648287C 487.7788324585404 474.75265885660895 488.05574270546407 466.80485882999426 487.5488416532606 452.9425462880282" stroke="#323232" stroke-width="2" fill="none"></path></g><g id="SvgjsG1173"><path id="SvgjsPath1174" d="M423.97802249969 530.3716701325912L381.0285966661243 530.3716701325912L381.0285966661243 530.3716701325912L338.07917083255865 530.3716701325912" stroke="#323232" stroke-width="1.5" fill="none"></path></g><g id="SvgjsG1175" transform="translate(25.001833840021106,395.3403155008947)"><path id="SvgjsPath1176" d="M 0 27.801391601562486C 0 -9.267130533854163 157.75678955562557 -9.267130533854163 157.75678955562557 27.801391601562486C 157.75678955562557 64.86991373697913 0 64.86991373697913 0 27.801391601562486Z" stroke="rgba(252,36,54,1)" stroke-width="4" fill-opacity="1" fill="#ffffff"></path><g id="SvgjsG1177"><text id="SvgjsText1178" font-family="微软雅黑" text-anchor="middle" font-size="15px" width="138px" fill="#323232" font-weight="400" align="middle" lineHeight="125%" anchor="middle" family="微软雅黑" size="15px" weight="400" font-style="" opacity="1" y="15.426391601562486" transform="rotate(0)"><tspan id="SvgjsTspan1179" dy="18.75" x="79"><tspan id="SvgjsTspan1180" style="">Current Layer</tspan></tspan></text></g></g><g id="SvgjsG1181" transform="translate(25.29351067921374,474.2981104472308)"><path id="SvgjsPath1182" d="M 0 27.801391601562486C 0 -9.267130533854163 157.1734358772403 -9.267130533854163 157.1734358772403 27.801391601562486C 157.1734358772403 64.86991373697913 0 64.86991373697913 0 27.801391601562486Z" stroke="rgba(252,36,54,1)" stroke-width="4" fill-opacity="1" fill="#ffffff"></path><g id="SvgjsG1183"><text id="SvgjsText1184" font-family="微软雅黑" text-anchor="middle" font-size="15px" width="138px" fill="#323232" font-weight="400" align="middle" lineHeight="125%" anchor="middle" family="微软雅黑" size="15px" weight="400" font-style="" opacity="1" y="15.426391601562486" transform="rotate(0)"><tspan id="SvgjsTspan1185" dy="18.75" x="79"><tspan id="SvgjsTspan1186" style="">Adjacent Layer</tspan></tspan></text></g></g><g id="SvgjsG1187" transform="translate(25.29351067921374,554.9008936503558)"><path id="SvgjsPath1188" d="M 0 27.801391601562486C 0 -9.267130533854163 157.1734358772403 -9.267130533854163 157.1734358772403 27.801391601562486C 157.1734358772403 64.86991373697913 0 64.86991373697913 0 27.801391601562486Z" stroke="rgba(252,36,54,1)" stroke-width="4" fill-opacity="1" fill="#ffffff"></path><g id="SvgjsG1189"><text id="SvgjsText1190" font-family="微软雅黑" text-anchor="middle" font-size="15px" width="138px" fill="#323232" font-weight="400" align="middle" lineHeight="125%" anchor="middle" family="微软雅黑" size="15px" weight="400" font-style="" opacity="1" y="15.426391601562486" transform="rotate(0)"><tspan id="SvgjsTspan1191" dy="18.75" x="79"><tspan id="SvgjsTspan1192" style="">All Layer</tspan></tspan></text></g></g><g id="SvgjsG1193"><path id="SvgjsPath1194" d="M241.09204259870586 530.1451279020353C 194.13602773637803 535.5158017592139 230.89594265916338 433.3736101731223 184.5759152052836 423.97684210868465" stroke="#323232" stroke-width="2" fill="none"></path></g><g id="SvgjsG1195"><path id="SvgjsPath1196" d="M241.08515382456 530.2170862659949C 216.47305841881138 533.1680852312307 208.72809104490926 507.20415143276944 184.35096482789453 502.7706765066496" stroke="#323232" stroke-width="2" fill="none"></path></g><g id="SvgjsG1197"><path id="SvgjsPath1198" d="M241.21069829738377 529.4794781751597C 210.80281462630836 532.1585504516804 214.21188905657124 589.4498810801557 184.46221977023123 582.5648632653838" stroke="#323232" stroke-width="2" fill="none"></path></g><g id="SvgjsG1199"><path id="SvgjsPath1200" d="M423.98517661255124 530.2026574995892C 377.27218253721725 535.4908601948193 391.28752305772576 445.0375272962782 337.5669879764965 447.44445532825375" stroke="#323232" stroke-width="2" fill="none"></path></g><g id="SvgjsG1201"><path id="SvgjsPath1202" d="M487.5018378363715 572.1216701325912L487.5018378363715 590.312673493036L487.5018378363715 590.312673493036L487.5018378363715 608.5036768534808" stroke="#323232" stroke-width="1.5" fill="none"></path></g><g id="SvgjsG1203"><path id="SvgjsPath1204" d="M707.4740110613845 609.8403679551595C 737.3545197221929 612.9091138178112 735.2840489427861 567.0530134583885 764.1105254778586 558.6552329196851" stroke="#323232" stroke-width="2" fill="none"></path></g><g id="SvgjsG1205"><path id="SvgjsPath1206" d="M707.4076912566213 610.7025098151614C 732.0441414692377 612.444515921643 740.3817873557605 646.0972616226169 763.8712930362483 638.4028196957797" stroke="#323232" stroke-width="2" fill="none"></path></g></svg>