<svg id="SvgjsSvg1214" width="965.8250732421875" height="705.5000610351562" xmlns="http://www.w3.org/2000/svg" version="1.1" xmlns:xlink="http://www.w3.org/1999/xlink" xmlns:svgjs="http://svgjs.com/svgjs"><defs id="SvgjsDefs1215"><pattern patternUnits="userSpaceOnUse" id="pattern_mark_0" width="300" height="300"><text x="150" y="100" fill="rgba(229,229,229,0.8)" font-size="18" transform="rotate(-45, 150, 150)" style="dominant-baseline: middle; text-anchor: middle;"></text></pattern><pattern patternUnits="userSpaceOnUse" id="pattern_mark_1" width="300" height="300"><text x="150" y="200" fill="rgba(229,229,229,0.8)" font-size="18" transform="rotate(-45, 150, 150)" style="dominant-baseline: middle; text-anchor: middle;"></text></pattern><marker id="SvgjsMarker1259" markerWidth="14" markerHeight="10" refX="10" refY="5" viewBox="0 0 14 10" orient="auto" markerUnits="userSpaceOnUse" stroke-dasharray="0,0"><path id="SvgjsPath1260" d="M0,0 L14,5 L0,10 L0,0" fill="#323232" stroke="#323232" stroke-width="1"></path></marker><marker id="SvgjsMarker1263" markerWidth="14" markerHeight="10" refX="10" refY="5" viewBox="0 0 14 10" orient="auto" markerUnits="userSpaceOnUse" stroke-dasharray="0,0"><path id="SvgjsPath1264" d="M0,0 L14,5 L0,10 L0,0" fill="#323232" stroke="#323232" stroke-width="1"></path></marker><marker id="SvgjsMarker1267" markerWidth="14" markerHeight="10" refX="10" refY="5" viewBox="0 0 14 10" orient="auto" markerUnits="userSpaceOnUse" stroke-dasharray="0,0"><path id="SvgjsPath1268" d="M0,0 L14,5 L0,10 L0,0" fill="#323232" stroke="#323232" stroke-width="1"></path></marker><marker id="SvgjsMarker1271" markerWidth="14" markerHeight="10" refX="10" refY="5" viewBox="0 0 14 10" orient="auto" markerUnits="userSpaceOnUse" stroke-dasharray="0,0"><path id="SvgjsPath1272" d="M0,0 L14,5 L0,10 L0,0" fill="#323232" stroke="#323232" stroke-width="1"></path></marker><marker id="SvgjsMarker1281" markerWidth="14" markerHeight="10" refX="10" refY="5" viewBox="0 0 14 10" orient="auto" markerUnits="userSpaceOnUse" stroke-dasharray="0,0"><path id="SvgjsPath1282" d="M0,0 L14,5 L0,10 L0,0" fill="#323232" stroke="#323232" stroke-width="1"></path></marker><marker id="SvgjsMarker1285" markerWidth="14" markerHeight="10" refX="10" refY="5" viewBox="0 0 14 10" orient="auto" markerUnits="userSpaceOnUse" stroke-dasharray="0,0"><path id="SvgjsPath1286" d="M0,0 L14,5 L0,10 L0,0" fill="#323232" stroke="#323232" stroke-width="1"></path></marker><pattern id="SvgjsPattern1289" x="0" y="0" width="280" height="144" patternUnits="userSpaceOnUse"><image id="SvgjsImage1290" xlink:href="https://cdn.processon.com/userId2-657d8156a12c6861b367e041?e=1702727526&amp;token=trhI0BY8QfVrIGn9nENop6JAc6l5nZuxhjQ62UfM:3itSvMCs87lz4MelkHfWfDKADio=" width="280" height="144" preserveAspectRatio="none" crossOrigin="anonymous" x="0" y="0"></image></pattern></defs><rect id="svgbackgroundid" width="965.8250732421875" height="705.5000610351562" fill="transparent"></rect><rect id="SvgjsRect1217" width="965.8250732421875" height="705.5000610351562" fill="url(#pattern_mark_0)"></rect><rect id="SvgjsRect1218" width="965.8250732421875" height="705.5000610351562" fill="url(#pattern_mark_1)"></rect><g id="SvgjsG1219" transform="translate(444.00177001953125,363.94309277004606)"><path id="SvgjsPath1220" d="M 0 43.5C 0 -14.5 87 -14.5 87 43.5C 87 101.5 0 101.5 0 43.5Z" stroke="rgba(33,41,48,1)" stroke-width="4" fill-opacity="1" fill="#ffffff"></path><g id="SvgjsG1221"><text id="SvgjsText1222" font-family="微软雅黑" text-anchor="middle" font-size="16px" width="67px" fill="#323232" font-weight="400" align="middle" lineHeight="125%" anchor="middle" family="微软雅黑" size="16px" weight="400" font-style="" opacity="1" y="29.5" transform="rotate(0)"><tspan id="SvgjsTspan1223" dy="20" x="43.5"><tspan id="SvgjsTspan1224" style="">Prune</tspan></tspan></text></g></g><g id="SvgjsG1225" transform="translate(660.8113054547989,157.79150741819365)"><path id="SvgjsPath1226" d="M 0 38.31348909650522C 0 -12.771163032168408 116.77775743272582 -12.771163032168408 116.77775743272582 38.31348909650522C 116.77775743272582 89.39814122517885 0 89.39814122517885 0 38.31348909650522Z" stroke="rgba(51,153,255,1)" stroke-width="4" fill-opacity="1" fill="#ffffff"></path><g id="SvgjsG1227"><text id="SvgjsText1228" font-family="微软雅黑" text-anchor="middle" font-size="15px" width="97px" fill="#323232" font-weight="400" align="middle" lineHeight="125%" anchor="middle" family="微软雅黑" size="15px" weight="400" font-style="" opacity="1" y="25.938489096505222" transform="rotate(0)"><tspan id="SvgjsTspan1229" dy="18.75" x="58.5"><tspan id="SvgjsTspan1230" style="">Regularizer</tspan></tspan></text></g></g><g id="SvgjsG1231" transform="translate(425.9779546828497,490.62166419861774)"><path id="SvgjsPath1232" d="M 0 39.75C 0 -13.25 123.04763067336313 -13.25 123.04763067336313 39.75C 123.04763067336313 92.75 0 92.75 0 39.75Z" stroke="rgba(204,204,0,1)" stroke-width="4" fill-opacity="1" fill="#ffffff"></path><g id="SvgjsG1233"><text id="SvgjsText1234" font-family="微软雅黑" text-anchor="middle" font-size="15px" width="104px" fill="#323232" font-weight="400" align="middle" lineHeight="125%" anchor="middle" family="微软雅黑" size="15px" weight="400" font-style="" opacity="1" y="27.375" transform="rotate(0)"><tspan id="SvgjsTspan1235" dy="18.75" x="62"><tspan id="SvgjsTspan1236" style="">Importance</tspan></tspan></text></g></g><g id="SvgjsG1237"><path id="SvgjsPath1238" d="M533.0007183940604 407.3782437456349C 633.2611717558295 407.44309277004606 720.9848568122975 336.66231274531344 719.1533083801469 236.41793620079534" stroke="#323232" stroke-width="2" fill="none"></path></g><g id="SvgjsG1239" transform="translate(435.84305148654516,161.10499651469888)"><path id="SvgjsPath1240" d="M 0 35C 0 -11.666666666666666 101.88884819878471 -11.666666666666666 101.88884819878471 35C 101.88884819878471 81.66666666666667 0 81.66666666666667 0 35Z" stroke="rgba(255,153,51,1)" stroke-width="3" fill-opacity="1" fill="#ffffff"></path><g id="SvgjsG1241"><text id="SvgjsText1242" font-family="微软雅黑" text-anchor="middle" font-size="15px" width="82px" fill="#323232" font-weight="400" align="middle" lineHeight="125%" anchor="middle" family="微软雅黑" size="15px" weight="400" font-style="" opacity="1" y="22.625" transform="rotate(0)"><tspan id="SvgjsTspan1243" dy="18.75" x="51"><tspan id="SvgjsTspan1244" style="">DepGraph</tspan></tspan></text></g></g><g id="SvgjsG1245" transform="translate(437.50177001953125,48.73614035712342)"><path id="SvgjsPath1246" d="M 0 0L 100 0L 100 40L 0 40Z" stroke="none" fill="none"></path><g id="SvgjsG1247"><text id="SvgjsText1248" font-family="微软雅黑" text-anchor="middle" font-size="20px" width="100px" fill="#323232" font-weight="400" align="middle" lineHeight="125%" anchor="middle" family="微软雅黑" size="20px" weight="400" font-style="" opacity="1" y="2" transform="rotate(0)"><tspan id="SvgjsTspan1249" dy="25" x="50"><tspan id="SvgjsTspan1250" style="font-weight: bold;">Model</tspan></tspan></text></g></g><g id="SvgjsG1251" transform="translate(437.50177001953125,290.54527870057126)"><path id="SvgjsPath1252" d="M 0 0L 100 0L 100 40L 0 40Z" stroke="none" fill="none"></path><g id="SvgjsG1253"><text id="SvgjsText1254" font-family="微软雅黑" text-anchor="middle" font-size="20px" width="100px" fill="#323232" font-weight="400" align="middle" lineHeight="125%" anchor="middle" family="微软雅黑" size="20px" weight="400" font-style="" opacity="1" y="2" transform="rotate(0)"><tspan id="SvgjsTspan1255" dy="25" x="50"><tspan id="SvgjsTspan1256" style="font-weight: bold;">Groups</tspan></tspan></text></g></g><g id="SvgjsG1257"><path id="SvgjsPath1258" d="M487.50177001953125 89.48614035712342L487.50177001953125 124.92056843591115L487.50177001953125 124.92056843591115L487.50177001953125 157.00499651469886" stroke="#323232" stroke-width="2" fill="none" marker-end="url(#SvgjsMarker1259)"></path></g><g id="SvgjsG1261"><path id="SvgjsPath1262" d="M486.7874755859375 232.60499651469888L486.7874755859375 260.82513760763504L487.50177001953125 260.82513760763504L487.50177001953125 287.19527870057124" stroke="#323232" stroke-width="2" fill="none" marker-end="url(#SvgjsMarker1263)"></path></g><g id="SvgjsG1265"><path id="SvgjsPath1266" d="M487.50177001953125 331.2952787005713L487.50177001953125 347.2441857353087L487.50177001953125 347.2441857353087L487.50177001953125 359.34309277004604" stroke="#323232" stroke-width="2" fill="none" marker-end="url(#SvgjsMarker1267)"></path></g><g id="SvgjsG1269"><path id="SvgjsPath1270" d="M538.2517700195312 68.73614035712342L719.2001841711619 68.73614035712342L719.2001841711619 153.19150741819362" stroke="#323232" stroke-width="2" fill="none" marker-end="url(#SvgjsMarker1271)"></path></g><g id="SvgjsG1273" transform="translate(575.1160714285713,25.008989606584805)"><path id="SvgjsPath1274" d="M 0 0L 100 0L 100 40L 0 40Z" stroke="none" fill="none"></path><g id="SvgjsG1275"><text id="SvgjsText1276" font-family="微软雅黑" text-anchor="middle" font-size="20px" width="100px" fill="#323232" font-weight="700" align="middle" lineHeight="125%" anchor="middle" family="微软雅黑" size="20px" weight="700" font-style="" opacity="1" y="2" transform="rotate(0)"><tspan id="SvgjsTspan1277" dy="25" x="50"><tspan id="SvgjsTspan1278" style="">(optional)</tspan></tspan></text></g></g><g id="SvgjsG1279"><path id="SvgjsPath1280" d="M658.8113054547989 196.10499651469888L599.2716025700644 196.10499651469888L599.2716025700644 196.10499651469888L541.8318996853299 196.10499651469888" stroke="#323232" stroke-width="2" fill="none" marker-end="url(#SvgjsMarker1281)"></path></g><g id="SvgjsG1283"><path id="SvgjsPath1284" d="M436.75177001953125 310.54527870057126L401.0196228027344 310.54527870057126L401.0196228027344 310.54527870057126L364.5374755859375 310.54527870057126" stroke="#323232" stroke-width="2" fill="none" marker-end="url(#SvgjsMarker1285)"></path></g><g id="SvgjsG1287" transform="translate(74.10380211654979,238.54527870057126)"><path id="SvgjsPath1288" d="M 0 0L 280 0L 280 144L 0 144Z" stroke="none" fill="url(#SvgjsPattern1289)"></path></g><g id="SvgjsG1291" transform="translate(856.1271611773777,33.73614035712342)"><path id="SvgjsPath1292" d="M 0 35C 0 -11.666666666666666 76.39999389648438 -11.666666666666666 76.39999389648438 35C 76.39999389648438 81.66666666666667 0 81.66666666666667 0 35Z" stroke="rgba(149,218,105,1)" stroke-width="4" fill-opacity="1" fill="#ffffff"></path><g id="SvgjsG1293"><text id="SvgjsText1294" font-family="微软雅黑" text-anchor="middle" font-size="15px" width="57px" fill="#323232" font-weight="400" align="middle" lineHeight="125%" anchor="middle" family="微软雅黑" size="15px" weight="400" font-style="" opacity="1" y="22.625" transform="rotate(0)"><tspan id="SvgjsTspan1295" dy="18.75" x="38.5"><tspan id="SvgjsTspan1296" style="">Weight</tspan></tspan></text></g></g><g id="SvgjsG1297"><path id="SvgjsPath1298" d="M779.8112763904389 196.73614035712342C 810.3376303052146 145.53614035712343 796.6628184498818 72.89429226837348 854.1574640908502 69.08297372824768" stroke="#323232" stroke-width="2" fill="none"></path></g><g id="SvgjsG1299" transform="translate(847.8271581256199,161.10499651469888)"><path id="SvgjsPath1300" d="M 0 35C 0 -11.666666666666666 93 -11.666666666666666 93 35C 93 81.66666666666667 0 81.66666666666667 0 35Z" stroke="rgba(149,218,105,1)" stroke-width="4" fill-opacity="1" fill="#ffffff"></path><g id="SvgjsG1301"><text id="SvgjsText1302" font-family="微软雅黑" text-anchor="middle" font-size="15px" width="73px" fill="#323232" font-weight="400" align="middle" lineHeight="125%" anchor="middle" family="微软雅黑" size="15px" weight="400" font-style="" opacity="1" y="22.625" transform="rotate(0)"><tspan id="SvgjsTspan1303" dy="18.75" x="46.5"><tspan id="SvgjsTspan1304" style="">Gradient</tspan></tspan></text></g></g><g id="SvgjsG1305"><path id="SvgjsPath1306" d="M779.5825328366939 196.26648199937375C 805.5773901196262 198.55365785856168 819.885828684321 199.04174857793328 845.8354645057664 196.2870858461684" stroke="#323232" stroke-width="2" fill="none"></path></g><g id="SvgjsG1307" transform="translate(847.8271581256199,275.54527870057126)"><path id="SvgjsPath1308" d="M 0 35C 0 -11.666666666666666 93 -11.666666666666666 93 35C 93 81.66666666666667 0 81.66666666666667 0 35Z" stroke="rgba(149,218,105,1)" stroke-width="4" fill-opacity="1" fill="#ffffff"></path><g id="SvgjsG1309"><text id="SvgjsText1310" font-family="微软雅黑" text-anchor="middle" font-size="15px" width="73px" fill="#323232" font-weight="400" align="middle" lineHeight="125%" anchor="middle" family="微软雅黑" size="15px" weight="400" font-style="" opacity="1" y="22.625" transform="rotate(0)"><tspan id="SvgjsTspan1311" dy="18.75" x="46.5"><tspan id="SvgjsTspan1312" style="">Extra</tspan></tspan></text></g></g><g id="SvgjsG1313"><path id="SvgjsPath1314" d="M779.088062425001 197.4290057241256C 825.6207987467449 228.03752644856775 794.4111018467477 316.1595324466705 845.8297604374445 310.443286175006" stroke="#323232" stroke-width="2" fill="none"></path></g><g id="SvgjsG1315" transform="translate(608.9862925211589,414.3403193155915)"><path id="SvgjsPath1316" d="M 0 35C 0 -11.666666666666666 76.39999389648438 -11.666666666666666 76.39999389648438 35C 76.39999389648438 81.66666666666667 0 81.66666666666667 0 35Z" stroke="rgba(149,218,105,1)" stroke-width="4" fill-opacity="1" fill="#ffffff"></path><g id="SvgjsG1317"><text id="SvgjsText1318" font-family="微软雅黑" text-anchor="middle" font-size="15px" width="57px" fill="#323232" font-weight="400" align="middle" lineHeight="125%" anchor="middle" family="微软雅黑" size="15px" weight="400" font-style="" opacity="1" y="22.625" transform="rotate(0)"><tspan id="SvgjsTspan1319" dy="18.75" x="38.5"><tspan id="SvgjsTspan1320" style="">Weight</tspan></tspan></text></g></g><g id="SvgjsG1321"><path id="SvgjsPath1322" d="M550.9957344039384 530.0274074198235C 589.1935890843774 533.8859091612992 568.7630745431113 452.15300071490526 607.0930295788711 449.9849552061215" stroke="#323232" stroke-width="2" fill="none"></path></g><g id="SvgjsG1323"><path id="SvgjsPath1324" d="M723.620808919271 608.6930927700462L723.620808919271 551.0502356271891L750.1624857584634 551.0502356271891" stroke="#323232" stroke-width="2" fill="none"></path></g><g id="SvgjsG1325" transform="translate(612.4938247922864,575.1216641986177)"><path id="SvgjsPath1326" d="M 0 35C 0 -11.666666666666666 93 -11.666666666666666 93 35C 93 81.66666666666667 0 81.66666666666667 0 35Z" stroke="rgba(149,218,105,1)" stroke-width="4" fill-opacity="1" fill="#ffffff"></path><g id="SvgjsG1327"><text id="SvgjsText1328" font-family="微软雅黑" text-anchor="middle" font-size="15px" width="73px" fill="#323232" font-weight="400" align="middle" lineHeight="125%" anchor="middle" family="微软雅黑" size="15px" weight="400" font-style="" opacity="1" y="22.625" transform="rotate(0)"><tspan id="SvgjsTspan1329" dy="18.75" x="46.5"><tspan id="SvgjsTspan1330" style="">Gradient</tspan></tspan></text></g></g><g id="SvgjsG1331"><path id="SvgjsPath1332" d="M550.9156923410702 531.0254956645117C 589.6396110320311 533.9249310254027 571.9479978861382 614.3832023288029 610.5145504179152 609.8344831564904" stroke="#323232" stroke-width="2" fill="none"></path></g><g id="SvgjsG1333"><path id="SvgjsPath1334" d="M687.373533127304 449.1148187281343C 726.6563793028124 452.95098458570556 720.874862588259 384.69047238942994 760.0922644952154 380.26149614335395" stroke="#323232" stroke-width="2" fill="none"></path></g><g id="SvgjsG1335" transform="translate(761.9938044472347,351.84030956692106)"><path id="SvgjsPath1336" d="M 0 27.801391601562486C 0 -9.267130533854163 85.83335367838527 -9.267130533854163 85.83335367838527 27.801391601562486C 85.83335367838527 64.86991373697913 0 64.86991373697913 0 27.801391601562486Z" stroke="rgba(70,105,234,1)" stroke-width="4" fill-opacity="1" fill="#ffffff"></path><g id="SvgjsG1337"><text id="SvgjsText1338" font-family="微软雅黑" text-anchor="middle" font-size="15px" width="66px" fill="#323232" font-weight="400" align="middle" lineHeight="125%" anchor="middle" family="微软雅黑" size="15px" weight="400" font-style="" opacity="1" y="15.426391601562486" transform="rotate(0)"><tspan id="SvgjsTspan1339" dy="18.75" x="43"><tspan id="SvgjsTspan1340" style="">Norm</tspan></tspan></text></g></g><g id="SvgjsG1341" transform="translate(761.9938044472347,439.76888099549274)"><path id="SvgjsPath1342" d="M 0 27.801391601562486C 0 -9.267130533854163 108.25 -9.267130533854163 108.25 27.801391601562486C 108.25 64.86991373697913 0 64.86991373697913 0 27.801391601562486Z" stroke="rgba(252,36,54,1)" stroke-width="4" fill-opacity="1" fill="#ffffff"></path><g id="SvgjsG1343"><text id="SvgjsText1344" font-family="微软雅黑" text-anchor="middle" font-size="15px" width="89px" fill="#323232" font-weight="400" align="middle" lineHeight="125%" anchor="middle" family="微软雅黑" size="15px" weight="400" font-style="" opacity="1" y="15.426391601562486" transform="rotate(0)"><tspan id="SvgjsTspan1345" dy="18.75" x="54.5"><tspan id="SvgjsTspan1346" style="">Correlation</tspan></tspan></text></g></g><g id="SvgjsG1347"><path id="SvgjsPath1348" d="M687.3604875428218 449.6605222470972C 716.8082378608515 451.53755620505876 730.8829248289087 472.497751853408 759.9959305851862 467.6624682116143" stroke="#323232" stroke-width="2" fill="none"></path></g><g id="SvgjsG1349" transform="translate(752.1624857584634,523.2488440256265)"><path id="SvgjsPath1350" d="M 0 27.801391601562486C 0 -9.267130533854163 167.45832316080737 -9.267130533854163 167.45832316080737 27.801391601562486C 167.45832316080737 64.86991373697913 0 64.86991373697913 0 27.801391601562486Z" stroke="rgba(70,105,234,1)" stroke-width="4" fill-opacity="1" fill="#ffffff"></path><g id="SvgjsG1351"><text id="SvgjsText1352" font-family="微软雅黑" text-anchor="middle" font-size="15px" width="148px" fill="#323232" font-weight="400" align="middle" lineHeight="125%" anchor="middle" family="微软雅黑" size="15px" weight="400" font-style="" opacity="1" y="15.426391601562486" transform="rotate(0)"><tspan id="SvgjsTspan1353" dy="18.75" x="84"><tspan id="SvgjsTspan1354" style="">First-order-Taylor</tspan></tspan></text></g></g><g id="SvgjsG1355" transform="translate(744.6624857584634,608.4340595669216)"><path id="SvgjsPath1356" d="M 0 27.801391601562486C 0 -9.267130533854163 182.45832316080737 -9.267130533854163 182.45832316080737 27.801391601562486C 182.45832316080737 64.86991373697913 0 64.86991373697913 0 27.801391601562486Z" stroke="rgba(70,105,234,1)" stroke-width="4" fill-opacity="1" fill="#ffffff"></path><g id="SvgjsG1357"><text id="SvgjsText1358" font-family="微软雅黑" text-anchor="middle" font-size="15px" width="163px" fill="#323232" font-weight="400" align="middle" lineHeight="125%" anchor="middle" family="微软雅黑" size="15px" weight="400" font-style="" opacity="1" y="15.426391601562486" transform="rotate(0)"><tspan id="SvgjsTspan1359" dy="18.75" x="91.5"><tspan id="SvgjsTspan1360" style="">Second-order-Taylor</tspan></tspan></text></g></g><g id="SvgjsG1361"><path id="SvgjsPath1362" d="M742.6624857584634 636.2354511684841L725.0781552753751 636.2354511684841L725.0781552753751 610.1216641986177L707.4938247922869 610.1216641986177" stroke="#323232" stroke-width="2" fill="none"></path></g><g id="SvgjsG1363" transform="translate(243.07910301571837,495.37166419861774)"><path id="SvgjsPath1364" d="M 0 35C 0 -11.666666666666666 93 -11.666666666666666 93 35C 93 81.66666666666667 0 81.66666666666667 0 35Z" stroke="rgba(149,218,105,1)" stroke-width="4" fill-opacity="1" fill="#ffffff"></path><g id="SvgjsG1365"><text id="SvgjsText1366" font-family="微软雅黑" text-anchor="middle" font-size="15px" width="73px" fill="#323232" font-weight="400" align="middle" lineHeight="125%" anchor="middle" family="微软雅黑" size="15px" weight="400" font-style="" opacity="1" y="22.625" transform="rotate(0)"><tspan id="SvgjsTspan1367" dy="18.75" x="46.5"><tspan id="SvgjsTspan1368" style="">Activation</tspan></tspan></text></g></g><g id="SvgjsG1369" transform="translate(239.74581037248925,420.2092178284162)"><path id="SvgjsPath1370" d="M 0 27.04444334242055C 0 -9.014814447473517 96.33329264322907 -9.014814447473517 96.33329264322907 27.04444334242055C 96.33329264322907 63.10370113231462 0 63.10370113231462 0 27.04444334242055Z" stroke="rgba(149,218,105,1)" stroke-width="3" fill-opacity="1" fill="#ffffff"></path><g id="SvgjsG1371"><text id="SvgjsText1372" font-family="微软雅黑" text-anchor="middle" font-size="15px" width="77px" fill="#323232" font-weight="400" align="middle" lineHeight="125%" anchor="middle" family="微软雅黑" size="15px" weight="400" font-style="" opacity="1" y="14.66944334242055" transform="rotate(0)"><tspan id="SvgjsTspan1373" dy="18.75" x="48.5"><tspan id="SvgjsTspan1374" style="">Random</tspan></tspan></text></g></g><g id="SvgjsG1375" transform="translate(243.07910301571837,589.0368427700464)"><path id="SvgjsPath1376" d="M 0 35C 0 -11.666666666666666 93 -11.666666666666666 93 35C 93 81.66666666666667 0 81.66666666666667 0 35Z" stroke="rgba(149,218,105,1)" stroke-width="4" fill-opacity="1" fill="#ffffff"></path><g id="SvgjsG1377"><text id="SvgjsText1378" font-family="微软雅黑" text-anchor="middle" font-size="15px" width="73px" fill="#323232" font-weight="400" align="middle" lineHeight="125%" anchor="middle" family="微软雅黑" size="15px" weight="400" font-style="" opacity="1" y="22.625" transform="rotate(0)"><tspan id="SvgjsTspan1379" dy="18.75" x="46.5"><tspan id="SvgjsTspan1380" style="">BNScale</tspan></tspan></text></g></g><g id="SvgjsG1381"><path id="SvgjsPath1382" d="M424.05306832918393 530.9146306114569C 374.3317607096068 535.7998979205582 387.812166764617 628.5628993775391 338.0718284083457 623.866415338046" stroke="#323232" stroke-width="2" fill="none"></path></g><g id="SvgjsG1383" transform="translate(432.73093159993493,610.5036709195073)"><path id="SvgjsPath1384" d="M 0 35C 0 -11.666666666666666 109.54167683919263 -11.666666666666666 109.54167683919263 35C 109.54167683919263 81.66666666666667 0 81.66666666666667 0 35Z" stroke="rgba(149,218,105,1)" stroke-width="4" fill-opacity="1" fill="#ffffff"></path><g id="SvgjsG1385"><text id="SvgjsText1386" font-family="微软雅黑" text-anchor="middle" font-size="15px" width="90px" fill="#323232" font-weight="400" align="middle" lineHeight="125%" anchor="middle" family="微软雅黑" size="15px" weight="400" font-style="" opacity="1" y="13.125" transform="rotate(0)"><tspan id="SvgjsTspan1387" dy="18.75" x="55"><tspan id="SvgjsTspan1388" style="">Variational </tspan></tspan><tspan id="SvgjsTspan1389" dy="18.75" x="55"><tspan id="SvgjsTspan1390" style="">Bayesian</tspan></tspan></text></g></g><g id="SvgjsG1391"><path id="SvgjsPath1392" d="M487.53782585545457 488.6219892308552C 487.77876464170015 474.75265292263543 488.0556748886238 466.80485289602075 487.5487738364203 452.9425403540547" stroke="#323232" stroke-width="2" fill="none"></path></g><g id="SvgjsG1393"><path id="SvgjsPath1394" d="M423.9779546828497 530.3716641986177L381.02852884928404 530.3716641986177L381.02852884928404 530.3716641986177L338.0791030157184 530.3716641986177" stroke="#323232" stroke-width="1.5" fill="none"></path></g><g id="SvgjsG1395" transform="translate(25.001766023180835,395.3403095669212)"><path id="SvgjsPath1396" d="M 0 27.801391601562486C 0 -9.267130533854163 157.75678955562557 -9.267130533854163 157.75678955562557 27.801391601562486C 157.75678955562557 64.86991373697913 0 64.86991373697913 0 27.801391601562486Z" stroke="rgba(252,36,54,1)" stroke-width="4" fill-opacity="1" fill="#ffffff"></path><g id="SvgjsG1397"><text id="SvgjsText1398" font-family="微软雅黑" text-anchor="middle" font-size="15px" width="138px" fill="#323232" font-weight="400" align="middle" lineHeight="125%" anchor="middle" family="微软雅黑" size="15px" weight="400" font-style="" opacity="1" y="15.426391601562486" transform="rotate(0)"><tspan id="SvgjsTspan1399" dy="18.75" x="79"><tspan id="SvgjsTspan1400" style="">Current Layer</tspan></tspan></text></g></g><g id="SvgjsG1401" transform="translate(25.293442862373468,474.2981045132573)"><path id="SvgjsPath1402" d="M 0 27.801391601562486C 0 -9.267130533854163 157.1734358772403 -9.267130533854163 157.1734358772403 27.801391601562486C 157.1734358772403 64.86991373697913 0 64.86991373697913 0 27.801391601562486Z" stroke="rgba(252,36,54,1)" stroke-width="4" fill-opacity="1" fill="#ffffff"></path><g id="SvgjsG1403"><text id="SvgjsText1404" font-family="微软雅黑" text-anchor="middle" font-size="15px" width="138px" fill="#323232" font-weight="400" align="middle" lineHeight="125%" anchor="middle" family="微软雅黑" size="15px" weight="400" font-style="" opacity="1" y="15.426391601562486" transform="rotate(0)"><tspan id="SvgjsTspan1405" dy="18.75" x="79"><tspan id="SvgjsTspan1406" style="">Adjacent Layer</tspan></tspan></text></g></g><g id="SvgjsG1407" transform="translate(25.293442862373468,554.9008877163823)"><path id="SvgjsPath1408" d="M 0 27.801391601562486C 0 -9.267130533854163 157.1734358772403 -9.267130533854163 157.1734358772403 27.801391601562486C 157.1734358772403 64.86991373697913 0 64.86991373697913 0 27.801391601562486Z" stroke="rgba(252,36,54,1)" stroke-width="4" fill-opacity="1" fill="#ffffff"></path><g id="SvgjsG1409"><text id="SvgjsText1410" font-family="微软雅黑" text-anchor="middle" font-size="15px" width="138px" fill="#323232" font-weight="400" align="middle" lineHeight="125%" anchor="middle" family="微软雅黑" size="15px" weight="400" font-style="" opacity="1" y="15.426391601562486" transform="rotate(0)"><tspan id="SvgjsTspan1411" dy="18.75" x="79"><tspan id="SvgjsTspan1412" style="">All Layer</tspan></tspan></text></g></g><g id="SvgjsG1413"><path id="SvgjsPath1414" d="M241.0919747818656 530.1451219680617C 194.13595991953775 535.5157958252404 230.8958748423231 433.3736042391488 184.57584738844332 423.97683617471114" stroke="#323232" stroke-width="2" fill="none"></path></g><g id="SvgjsG1415"><path id="SvgjsPath1416" d="M241.08508600771972 530.2170803320214C 216.4729906019711 533.1680792972572 208.728023228069 507.2041454987959 184.35089701105426 502.77067057267607" stroke="#323232" stroke-width="2" fill="none"></path></g><g id="SvgjsG1417"><path id="SvgjsPath1418" d="M241.2106304805435 529.4794722411862C 210.8027468094681 532.1585445177069 214.21182123973097 589.4498751461822 184.46215195339096 582.5648573314103" stroke="#323232" stroke-width="2" fill="none"></path></g><g id="SvgjsG1419"><path id="SvgjsPath1420" d="M423.98510879571097 530.2026515656157C 377.272114720377 535.4908542608458 391.2874552408855 445.0375213623047 337.5669201596562 447.44444939428024" stroke="#323232" stroke-width="2" fill="none"></path></g><g id="SvgjsG1421"><path id="SvgjsPath1422" d="M487.50177001953125 572.1216641986177L487.50177001953125 590.3126675590624L487.50177001953125 590.3126675590624L487.50177001953125 608.5036709195073" stroke="#323232" stroke-width="1.5" fill="none"></path></g></svg>